<svg xmlns="http://www.w3.org/2000/svg" xmlns:xlink="http://www.w3.org/1999/xlink"
     viewBox="0 0 800 388" width="800" height="388">
  <defs>
    <style>
      .c0  { fill: #161b22; }
      .c1  { fill: #0e4429; }
      .c2  { fill: #006d32; }
      .c3  { fill: #26a641; }
      .c4  { fill: #39d353; }
      .inv { fill: #ffffff; }
      .ui  { font-family: "Courier New", monospace; fill: #ffffff; font-size: 11px; }
      .ui2 { font-family: "Courier New", monospace; fill: #39d353; font-size: 11px; }
    </style>

    <!-- ── Squid invader (top row, 27×18) ──────────────────────────────── -->
    <g id="inv-squid">
      <rect x="9"  y="0"  width="9"  height="3" class="inv"/>
      <rect x="3"  y="3"  width="21" height="3" class="inv"/>
      <rect x="0"  y="6"  width="27" height="3" class="inv"/>
      <rect x="0"  y="6"  width="6"  height="3" style="fill:#000"/>
      <rect x="21" y="6"  width="6"  height="3" style="fill:#000"/>
      <rect x="0"  y="9"  width="27" height="3" class="inv"/>
      <rect x="6"  y="12" width="6"  height="3" class="inv"/>
      <rect x="15" y="12" width="6"  height="3" class="inv"/>
      <rect x="0"  y="15" width="3"  height="3" class="inv"/>
      <rect x="24" y="15" width="3"  height="3" class="inv"/>
    </g>

    <!-- ── Crab invader (middle rows, 33×18) ──────────────────────────── -->
    <g id="inv-crab">
      <rect x="3"  y="0"  width="3"  height="3" class="inv"/>
      <rect x="21" y="0"  width="3"  height="3" class="inv"/>
      <rect x="6"  y="3"  width="15" height="3" class="inv"/>
      <rect x="0"  y="6"  width="27" height="3" class="inv"/>
      <rect x="6"  y="6"  width="3"  height="3" style="fill:#000"/>
      <rect x="18" y="6"  width="3"  height="3" style="fill:#000"/>
      <rect x="3"  y="9"  width="21" height="3" class="inv"/>
      <rect x="0"  y="12" width="9"  height="3" class="inv"/>
      <rect x="12" y="12" width="3"  height="3" class="inv"/>
      <rect x="18" y="12" width="9"  height="3" class="inv"/>
      <rect x="0"  y="15" width="3"  height="3" class="inv"/>
      <rect x="9"  y="15" width="3"  height="3" class="inv"/>
      <rect x="15" y="15" width="3"  height="3" class="inv"/>
      <rect x="24" y="15" width="3"  height="3" class="inv"/>
    </g>

    <!-- ── Octopus invader (bottom rows, 27×18) ─────────────────────── -->
    <g id="inv-octopus">
      <rect x="6"  y="0"  width="15" height="3" class="inv"/>
      <rect x="0"  y="3"  width="27" height="3" class="inv"/>
      <rect x="0"  y="6"  width="27" height="3" class="inv"/>
      <rect x="3"  y="6"  width="3"  height="3" style="fill:#000"/>
      <rect x="21" y="6"  width="3"  height="3" style="fill:#000"/>
      <rect x="0"  y="9"  width="27" height="3" class="inv"/>
      <rect x="3"  y="12" width="6"  height="3" class="inv"/>
      <rect x="18" y="12" width="6"  height="3" class="inv"/>
      <rect x="0"  y="15" width="3"  height="3" class="inv"/>
      <rect x="9"  y="15" width="3"  height="3" class="inv"/>
      <rect x="15" y="15" width="3"  height="3" class="inv"/>
      <rect x="24" y="15" width="3"  height="3" class="inv"/>
    </g>

    <!-- ── Player ship (cannon) ─────────────────────────────────────── -->
    <g id="player">
      <rect x="12" y="0"  width="6"  height="3" class="ui2"/>
      <rect x="6"  y="3"  width="18" height="3" class="ui2"/>
      <rect x="0"  y="6"  width="30" height="6" class="ui2"/>
    </g>
  </defs>

  <!-- Black background -->
  <rect width="800" height="388" fill="#000000"/>

  <!-- ═══ SCORE BAR (classic game header) ═══ -->
  <text x="120" y="14" class="ui" text-anchor="middle">SCORE&lt;1&gt;</text>
  <text x="400" y="14" class="ui" text-anchor="middle">HI-SCORE</text>
  <text x="680" y="14" class="ui" text-anchor="middle">SCORE&lt;2&gt;</text>
  <text x="120" y="26" class="ui" text-anchor="middle">000742</text>
  <text x="400" y="26" class="ui" text-anchor="middle">007420</text>
  <text x="680" y="26" class="ui" text-anchor="middle">000000</text>

  <!-- ═══ INVADER FORMATION (marches with discrete stepping) ═══ -->
  <g>
    <use href="#inv-squid" transform="translate(8,0)"/>
    <use href="#inv-squid" transform="translate(52,0)"/>
    <use href="#inv-squid" transform="translate(96,0)"/>
    <use href="#inv-squid" transform="translate(140,0)"/>
    <use href="#inv-squid" transform="translate(184,0)"/>
    <use href="#inv-squid" transform="translate(228,0)"/>
    <use href="#inv-squid" transform="translate(272,0)"/>
    <use href="#inv-squid" transform="translate(316,0)"/>
    <use href="#inv-squid" transform="translate(360,0)"/>
    <use href="#inv-squid" transform="translate(404,0)"/>
    <use href="#inv-squid" transform="translate(448,0)"/>
    <use href="#inv-crab" transform="translate(8,28)"/>
    <use href="#inv-crab" transform="translate(52,28)"/>
    <use href="#inv-crab" transform="translate(96,28)"/>
    <use href="#inv-crab" transform="translate(140,28)"/>
    <use href="#inv-crab" transform="translate(184,28)"/>
    <use href="#inv-crab" transform="translate(228,28)"/>
    <use href="#inv-crab" transform="translate(272,28)"/>
    <use href="#inv-crab" transform="translate(316,28)"/>
    <use href="#inv-crab" transform="translate(360,28)"/>
    <use href="#inv-crab" transform="translate(404,28)"/>
    <use href="#inv-crab" transform="translate(448,28)"/>
    <use href="#inv-crab" transform="translate(8,56)"/>
    <use href="#inv-crab" transform="translate(52,56)"/>
    <use href="#inv-crab" transform="translate(96,56)"/>
    <use href="#inv-crab" transform="translate(140,56)"/>
    <use href="#inv-crab" transform="translate(184,56)"/>
    <use href="#inv-crab" transform="translate(228,56)"/>
    <use href="#inv-crab" transform="translate(272,56)"/>
    <use href="#inv-crab" transform="translate(316,56)"/>
    <use href="#inv-crab" transform="translate(360,56)"/>
    <use href="#inv-crab" transform="translate(404,56)"/>
    <use href="#inv-crab" transform="translate(448,56)"/>
    <use href="#inv-octopus" transform="translate(8,84)"/>
    <use href="#inv-octopus" transform="translate(52,84)"/>
    <use href="#inv-octopus" transform="translate(96,84)"/>
    <use href="#inv-octopus" transform="translate(140,84)"/>
    <use href="#inv-octopus" transform="translate(184,84)"/>
    <use href="#inv-octopus" transform="translate(228,84)"/>
    <use href="#inv-octopus" transform="translate(272,84)"/>
    <use href="#inv-octopus" transform="translate(316,84)"/>
    <use href="#inv-octopus" transform="translate(360,84)"/>
    <use href="#inv-octopus" transform="translate(404,84)"/>
    <use href="#inv-octopus" transform="translate(448,84)"/>
    <use href="#inv-octopus" transform="translate(8,112)"/>
    <use href="#inv-octopus" transform="translate(52,112)"/>
    <use href="#inv-octopus" transform="translate(96,112)"/>
    <use href="#inv-octopus" transform="translate(140,112)"/>
    <use href="#inv-octopus" transform="translate(184,112)"/>
    <use href="#inv-octopus" transform="translate(228,112)"/>
    <use href="#inv-octopus" transform="translate(272,112)"/>
    <use href="#inv-octopus" transform="translate(316,112)"/>
    <use href="#inv-octopus" transform="translate(360,112)"/>
    <use href="#inv-octopus" transform="translate(404,112)"/>
    <use href="#inv-octopus" transform="translate(448,112)"/>
    <animateTransform attributeName="transform" type="translate"
      calcMode="discrete"
      values="14,40; 30,40; 46,40; 62,40; 78,40; 94,40; 110,40; 126,40; 142,40; 158,40; 174,40; 190,40; 206,40; 222,40; 238,40; 254,40; 258,40; 258,40; 258,40; 242,40; 226,40; 210,40; 194,40; 178,40; 162,40; 146,40; 130,40; 114,40; 98,40; 82,40; 66,40; 50,40; 34,40; 18,40; 14,40"
      keyTimes="0.0000; 0.0283; 0.0566; 0.0849; 0.1132; 0.1415; 0.1698; 0.1981; 0.2264; 0.2547; 0.2830; 0.3113; 0.3396; 0.3679; 0.3962; 0.4245; 0.4528; 0.5283; 0.5283; 0.5566; 0.5849; 0.6132; 0.6415; 0.6698; 0.6981; 0.7264; 0.7547; 0.7830; 0.8113; 0.8396; 0.8679; 0.8962; 0.9245; 0.9528; 0.9811"
      dur="10.6s" repeatCount="indefinite"/>
  </g>

  <!-- ═══ CONTRIBUTION GRID (real GitHub data — the city being destroyed) ═══ -->
  <text x="14" y="214" class="ui2" font-size="9">@FlashyFlash3011 contributions</text>
  <rect id="s0-0" x="14" y="220" width="11" height="11" rx="2" class="c0"/>
  <rect id="s0-1" x="14" y="234" width="11" height="11" rx="2" class="c0"/>
  <rect id="s0-2" x="14" y="248" width="11" height="11" rx="2" class="c0"/>
  <rect id="s0-3" x="14" y="262" width="11" height="11" rx="2" class="c0"/>
  <rect id="s0-4" x="14" y="276" width="11" height="11" rx="2" class="c0"/>
  <rect id="s0-5" x="14" y="290" width="11" height="11" rx="2" class="c0"/>
  <rect id="s0-6" x="14" y="304" width="11" height="11" rx="2" class="c0"/>
  <rect id="s1-0" x="28" y="220" width="11" height="11" rx="2" class="c0"/>
  <rect id="s1-1" x="28" y="234" width="11" height="11" rx="2" class="c0"/>
  <rect id="s1-2" x="28" y="248" width="11" height="11" rx="2" class="c0"/>
  <rect id="s1-3" x="28" y="262" width="11" height="11" rx="2" class="c0"/>
  <rect id="s1-4" x="28" y="276" width="11" height="11" rx="2" class="c0"/>
  <rect id="s1-5" x="28" y="290" width="11" height="11" rx="2" class="c0"/>
  <rect id="s1-6" x="28" y="304" width="11" height="11" rx="2" class="c0"/>
  <rect id="s2-0" x="42" y="220" width="11" height="11" rx="2" class="c0"/>
  <rect id="s2-1" x="42" y="234" width="11" height="11" rx="2" class="c0"/>
  <rect id="s2-2" x="42" y="248" width="11" height="11" rx="2" class="c0"/>
  <rect id="s2-3" x="42" y="262" width="11" height="11" rx="2" class="c0"/>
  <rect id="s2-4" x="42" y="276" width="11" height="11" rx="2" class="c0"/>
  <rect id="s2-5" x="42" y="290" width="11" height="11" rx="2" class="c0"/>
  <rect id="s2-6" x="42" y="304" width="11" height="11" rx="2" class="c0"/>
  <rect id="s3-0" x="56" y="220" width="11" height="11" rx="2" class="c0"/>
  <rect id="s3-1" x="56" y="234" width="11" height="11" rx="2" class="c0"/>
  <rect id="s3-2" x="56" y="248" width="11" height="11" rx="2" class="c0"/>
  <rect id="s3-3" x="56" y="262" width="11" height="11" rx="2" class="c0"/>
  <rect id="s3-4" x="56" y="276" width="11" height="11" rx="2" class="c0"/>
  <rect id="s3-5" x="56" y="290" width="11" height="11" rx="2" class="c0"/>
  <rect id="s3-6" x="56" y="304" width="11" height="11" rx="2" class="c0"/>
  <rect id="s4-0" x="70" y="220" width="11" height="11" rx="2" class="c0"/>
  <rect id="s4-1" x="70" y="234" width="11" height="11" rx="2" class="c0"/>
  <rect id="s4-2" x="70" y="248" width="11" height="11" rx="2" class="c0"/>
  <rect id="s4-3" x="70" y="262" width="11" height="11" rx="2" class="c0"/>
  <rect id="s4-4" x="70" y="276" width="11" height="11" rx="2" class="c1"/>
  <rect id="s4-5" x="70" y="290" width="11" height="11" rx="2" class="c0"/>
  <rect id="s4-6" x="70" y="304" width="11" height="11" rx="2" class="c0"/>
  <rect id="s5-0" x="84" y="220" width="11" height="11" rx="2" class="c0"/>
  <rect id="s5-1" x="84" y="234" width="11" height="11" rx="2" class="c0"/>
  <rect id="s5-2" x="84" y="248" width="11" height="11" rx="2" class="c0"/>
  <rect id="s5-3" x="84" y="262" width="11" height="11" rx="2" class="c0"/>
  <rect id="s5-4" x="84" y="276" width="11" height="11" rx="2" class="c0"/>
  <rect id="s5-5" x="84" y="290" width="11" height="11" rx="2" class="c0"/>
  <rect id="s5-6" x="84" y="304" width="11" height="11" rx="2" class="c0"/>
  <rect id="s6-0" x="98" y="220" width="11" height="11" rx="2" class="c0"/>
  <rect id="s6-1" x="98" y="234" width="11" height="11" rx="2" class="c1"/>
  <rect id="s6-2" x="98" y="248" width="11" height="11" rx="2" class="c1"/>
  <rect id="s6-3" x="98" y="262" width="11" height="11" rx="2" class="c1"/>
  <rect id="s6-4" x="98" y="276" width="11" height="11" rx="2" class="c2"/>
  <rect id="s6-5" x="98" y="290" width="11" height="11" rx="2" class="c1"/>
  <rect id="s6-6" x="98" y="304" width="11" height="11" rx="2" class="c1"/>
  <rect id="s7-0" x="112" y="220" width="11" height="11" rx="2" class="c3"/>
  <rect id="s7-1" x="112" y="234" width="11" height="11" rx="2" class="c1"/>
  <rect id="s7-2" x="112" y="248" width="11" height="11" rx="2" class="c0"/>
  <rect id="s7-3" x="112" y="262" width="11" height="11" rx="2" class="c1"/>
  <rect id="s7-4" x="112" y="276" width="11" height="11" rx="2" class="c2"/>
  <rect id="s7-5" x="112" y="290" width="11" height="11" rx="2" class="c0"/>
  <rect id="s7-6" x="112" y="304" width="11" height="11" rx="2" class="c0"/>
  <rect id="s8-0" x="126" y="220" width="11" height="11" rx="2" class="c0"/>
  <rect id="s8-1" x="126" y="234" width="11" height="11" rx="2" class="c0"/>
  <rect id="s8-2" x="126" y="248" width="11" height="11" rx="2" class="c1"/>
  <rect id="s8-3" x="126" y="262" width="11" height="11" rx="2" class="c3"/>
  <rect id="s8-4" x="126" y="276" width="11" height="11" rx="2" class="c0"/>
  <rect id="s8-5" x="126" y="290" width="11" height="11" rx="2" class="c1"/>
  <rect id="s8-6" x="126" y="304" width="11" height="11" rx="2" class="c0"/>
  <rect id="s9-0" x="140" y="220" width="11" height="11" rx="2" class="c0"/>
  <rect id="s9-1" x="140" y="234" width="11" height="11" rx="2" class="c3"/>
  <rect id="s9-2" x="140" y="248" width="11" height="11" rx="2" class="c1"/>
  <rect id="s9-3" x="140" y="262" width="11" height="11" rx="2" class="c1"/>
  <rect id="s9-4" x="140" y="276" width="11" height="11" rx="2" class="c0"/>
  <rect id="s9-5" x="140" y="290" width="11" height="11" rx="2" class="c2"/>
  <rect id="s9-6" x="140" y="304" width="11" height="11" rx="2" class="c0"/>
  <rect id="s10-0" x="154" y="220" width="11" height="11" rx="2" class="c0"/>
  <rect id="s10-1" x="154" y="234" width="11" height="11" rx="2" class="c0"/>
  <rect id="s10-2" x="154" y="248" width="11" height="11" rx="2" class="c2"/>
  <rect id="s10-3" x="154" y="262" width="11" height="11" rx="2" class="c2"/>
  <rect id="s10-4" x="154" y="276" width="11" height="11" rx="2" class="c2"/>
  <rect id="s10-5" x="154" y="290" width="11" height="11" rx="2" class="c1"/>
  <rect id="s10-6" x="154" y="304" width="11" height="11" rx="2" class="c1"/>
  <rect id="s11-0" x="168" y="220" width="11" height="11" rx="2" class="c0"/>
  <rect id="s11-1" x="168" y="234" width="11" height="11" rx="2" class="c0"/>
  <rect id="s11-2" x="168" y="248" width="11" height="11" rx="2" class="c2"/>
  <rect id="s11-3" x="168" y="262" width="11" height="11" rx="2" class="c2"/>
  <rect id="s11-4" x="168" y="276" width="11" height="11" rx="2" class="c1"/>
  <rect id="s11-5" x="168" y="290" width="11" height="11" rx="2" class="c1"/>
  <rect id="s11-6" x="168" y="304" width="11" height="11" rx="2" class="c0"/>
  <rect id="s12-0" x="182" y="220" width="11" height="11" rx="2" class="c0"/>
  <rect id="s12-1" x="182" y="234" width="11" height="11" rx="2" class="c0"/>
  <rect id="s12-2" x="182" y="248" width="11" height="11" rx="2" class="c1"/>
  <rect id="s12-3" x="182" y="262" width="11" height="11" rx="2" class="c0"/>
  <rect id="s12-4" x="182" y="276" width="11" height="11" rx="2" class="c1"/>
  <rect id="s12-5" x="182" y="290" width="11" height="11" rx="2" class="c2"/>
  <rect id="s12-6" x="182" y="304" width="11" height="11" rx="2" class="c0"/>
  <rect id="s13-0" x="196" y="220" width="11" height="11" rx="2" class="c0"/>
  <rect id="s13-1" x="196" y="234" width="11" height="11" rx="2" class="c1"/>
  <rect id="s13-2" x="196" y="248" width="11" height="11" rx="2" class="c0"/>
  <rect id="s13-3" x="196" y="262" width="11" height="11" rx="2" class="c1"/>
  <rect id="s13-4" x="196" y="276" width="11" height="11" rx="2" class="c1"/>
  <rect id="s13-5" x="196" y="290" width="11" height="11" rx="2" class="c1"/>
  <rect id="s13-6" x="196" y="304" width="11" height="11" rx="2" class="c2"/>
  <rect id="s14-0" x="210" y="220" width="11" height="11" rx="2" class="c0"/>
  <rect id="s14-1" x="210" y="234" width="11" height="11" rx="2" class="c1"/>
  <rect id="s14-2" x="210" y="248" width="11" height="11" rx="2" class="c0"/>
  <rect id="s14-3" x="210" y="262" width="11" height="11" rx="2" class="c0"/>
  <rect id="s14-4" x="210" y="276" width="11" height="11" rx="2" class="c1"/>
  <rect id="s14-5" x="210" y="290" width="11" height="11" rx="2" class="c1"/>
  <rect id="s14-6" x="210" y="304" width="11" height="11" rx="2" class="c0"/>
  <rect id="s15-0" x="224" y="220" width="11" height="11" rx="2" class="c0"/>
  <rect id="s15-1" x="224" y="234" width="11" height="11" rx="2" class="c2"/>
  <rect id="s15-2" x="224" y="248" width="11" height="11" rx="2" class="c0"/>
  <rect id="s15-3" x="224" y="262" width="11" height="11" rx="2" class="c0"/>
  <rect id="s15-4" x="224" y="276" width="11" height="11" rx="2" class="c1"/>
  <rect id="s15-5" x="224" y="290" width="11" height="11" rx="2" class="c0"/>
  <rect id="s15-6" x="224" y="304" width="11" height="11" rx="2" class="c0"/>
  <rect id="s16-0" x="238" y="220" width="11" height="11" rx="2" class="c0"/>
  <rect id="s16-1" x="238" y="234" width="11" height="11" rx="2" class="c2"/>
  <rect id="s16-2" x="238" y="248" width="11" height="11" rx="2" class="c1"/>
  <rect id="s16-3" x="238" y="262" width="11" height="11" rx="2" class="c1"/>
  <rect id="s16-4" x="238" y="276" width="11" height="11" rx="2" class="c2"/>
  <rect id="s16-5" x="238" y="290" width="11" height="11" rx="2" class="c0"/>
  <rect id="s16-6" x="238" y="304" width="11" height="11" rx="2" class="c1"/>
  <rect id="s17-0" x="252" y="220" width="11" height="11" rx="2" class="c0"/>
  <rect id="s17-1" x="252" y="234" width="11" height="11" rx="2" class="c1"/>
  <rect id="s17-2" x="252" y="248" width="11" height="11" rx="2" class="c2"/>
  <rect id="s17-3" x="252" y="262" width="11" height="11" rx="2" class="c1"/>
  <rect id="s17-4" x="252" y="276" width="11" height="11" rx="2" class="c1"/>
  <rect id="s17-5" x="252" y="290" width="11" height="11" rx="2" class="c2"/>
  <rect id="s17-6" x="252" y="304" width="11" height="11" rx="2" class="c0"/>
  <rect id="s18-0" x="266" y="220" width="11" height="11" rx="2" class="c1"/>
  <rect id="s18-1" x="266" y="234" width="11" height="11" rx="2" class="c0"/>
  <rect id="s18-2" x="266" y="248" width="11" height="11" rx="2" class="c2"/>
  <rect id="s18-3" x="266" y="262" width="11" height="11" rx="2" class="c1"/>
  <rect id="s18-4" x="266" y="276" width="11" height="11" rx="2" class="c0"/>
  <rect id="s18-5" x="266" y="290" width="11" height="11" rx="2" class="c0"/>
  <rect id="s18-6" x="266" y="304" width="11" height="11" rx="2" class="c1"/>
  <rect id="s19-0" x="280" y="220" width="11" height="11" rx="2" class="c0"/>
  <rect id="s19-1" x="280" y="234" width="11" height="11" rx="2" class="c1"/>
  <rect id="s19-2" x="280" y="248" width="11" height="11" rx="2" class="c1"/>
  <rect id="s19-3" x="280" y="262" width="11" height="11" rx="2" class="c1"/>
  <rect id="s19-4" x="280" y="276" width="11" height="11" rx="2" class="c2"/>
  <rect id="s19-5" x="280" y="290" width="11" height="11" rx="2" class="c1"/>
  <rect id="s19-6" x="280" y="304" width="11" height="11" rx="2" class="c0"/>
  <rect id="s20-0" x="294" y="220" width="11" height="11" rx="2" class="c0"/>
  <rect id="s20-1" x="294" y="234" width="11" height="11" rx="2" class="c0"/>
  <rect id="s20-2" x="294" y="248" width="11" height="11" rx="2" class="c1"/>
  <rect id="s20-3" x="294" y="262" width="11" height="11" rx="2" class="c1"/>
  <rect id="s20-4" x="294" y="276" width="11" height="11" rx="2" class="c2"/>
  <rect id="s20-5" x="294" y="290" width="11" height="11" rx="2" class="c1"/>
  <rect id="s20-6" x="294" y="304" width="11" height="11" rx="2" class="c1"/>
  <rect id="s21-0" x="308" y="220" width="11" height="11" rx="2" class="c0"/>
  <rect id="s21-1" x="308" y="234" width="11" height="11" rx="2" class="c1"/>
  <rect id="s21-2" x="308" y="248" width="11" height="11" rx="2" class="c2"/>
  <rect id="s21-3" x="308" y="262" width="11" height="11" rx="2" class="c2"/>
  <rect id="s21-4" x="308" y="276" width="11" height="11" rx="2" class="c1"/>
  <rect id="s21-5" x="308" y="290" width="11" height="11" rx="2" class="c2"/>
  <rect id="s21-6" x="308" y="304" width="11" height="11" rx="2" class="c1"/>
  <rect id="s22-0" x="322" y="220" width="11" height="11" rx="2" class="c0"/>
  <rect id="s22-1" x="322" y="234" width="11" height="11" rx="2" class="c2"/>
  <rect id="s22-2" x="322" y="248" width="11" height="11" rx="2" class="c3"/>
  <rect id="s22-3" x="322" y="262" width="11" height="11" rx="2" class="c2"/>
  <rect id="s22-4" x="322" y="276" width="11" height="11" rx="2" class="c1"/>
  <rect id="s22-5" x="322" y="290" width="11" height="11" rx="2" class="c1"/>
  <rect id="s22-6" x="322" y="304" width="11" height="11" rx="2" class="c0"/>
  <rect id="s23-0" x="336" y="220" width="11" height="11" rx="2" class="c0"/>
  <rect id="s23-1" x="336" y="234" width="11" height="11" rx="2" class="c2"/>
  <rect id="s23-2" x="336" y="248" width="11" height="11" rx="2" class="c1"/>
  <rect id="s23-3" x="336" y="262" width="11" height="11" rx="2" class="c1"/>
  <rect id="s23-4" x="336" y="276" width="11" height="11" rx="2" class="c2"/>
  <rect id="s23-5" x="336" y="290" width="11" height="11" rx="2" class="c1"/>
  <rect id="s23-6" x="336" y="304" width="11" height="11" rx="2" class="c0"/>
  <rect id="s24-0" x="350" y="220" width="11" height="11" rx="2" class="c1"/>
  <rect id="s24-1" x="350" y="234" width="11" height="11" rx="2" class="c1"/>
  <rect id="s24-2" x="350" y="248" width="11" height="11" rx="2" class="c2"/>
  <rect id="s24-3" x="350" y="262" width="11" height="11" rx="2" class="c2"/>
  <rect id="s24-4" x="350" y="276" width="11" height="11" rx="2" class="c2"/>
  <rect id="s24-5" x="350" y="290" width="11" height="11" rx="2" class="c2"/>
  <rect id="s24-6" x="350" y="304" width="11" height="11" rx="2" class="c0"/>
  <rect id="s25-0" x="364" y="220" width="11" height="11" rx="2" class="c2"/>
  <rect id="s25-1" x="364" y="234" width="11" height="11" rx="2" class="c2"/>
  <rect id="s25-2" x="364" y="248" width="11" height="11" rx="2" class="c0"/>
  <rect id="s25-3" x="364" y="262" width="11" height="11" rx="2" class="c1"/>
  <rect id="s25-4" x="364" y="276" width="11" height="11" rx="2" class="c1"/>
  <rect id="s25-5" x="364" y="290" width="11" height="11" rx="2" class="c1"/>
  <rect id="s25-6" x="364" y="304" width="11" height="11" rx="2" class="c0"/>
  <rect id="s26-0" x="378" y="220" width="11" height="11" rx="2" class="c0"/>
  <rect id="s26-1" x="378" y="234" width="11" height="11" rx="2" class="c3"/>
  <rect id="s26-2" x="378" y="248" width="11" height="11" rx="2" class="c2"/>
  <rect id="s26-3" x="378" y="262" width="11" height="11" rx="2" class="c1"/>
  <rect id="s26-4" x="378" y="276" width="11" height="11" rx="2" class="c0"/>
  <rect id="s26-5" x="378" y="290" width="11" height="11" rx="2" class="c1"/>
  <rect id="s26-6" x="378" y="304" width="11" height="11" rx="2" class="c0"/>
  <rect id="s27-0" x="392" y="220" width="11" height="11" rx="2" class="c0"/>
  <rect id="s27-1" x="392" y="234" width="11" height="11" rx="2" class="c1"/>
  <rect id="s27-2" x="392" y="248" width="11" height="11" rx="2" class="c1"/>
  <rect id="s27-3" x="392" y="262" width="11" height="11" rx="2" class="c2"/>
  <rect id="s27-4" x="392" y="276" width="11" height="11" rx="2" class="c1"/>
  <rect id="s27-5" x="392" y="290" width="11" height="11" rx="2" class="c1"/>
  <rect id="s27-6" x="392" y="304" width="11" height="11" rx="2" class="c0"/>
  <rect id="s28-0" x="406" y="220" width="11" height="11" rx="2" class="c0"/>
  <rect id="s28-1" x="406" y="234" width="11" height="11" rx="2" class="c0"/>
  <rect id="s28-2" x="406" y="248" width="11" height="11" rx="2" class="c1"/>
  <rect id="s28-3" x="406" y="262" width="11" height="11" rx="2" class="c1"/>
  <rect id="s28-4" x="406" y="276" width="11" height="11" rx="2" class="c1"/>
  <rect id="s28-5" x="406" y="290" width="11" height="11" rx="2" class="c2"/>
  <rect id="s28-6" x="406" y="304" width="11" height="11" rx="2" class="c0"/>
  <rect id="s29-0" x="420" y="220" width="11" height="11" rx="2" class="c0"/>
  <rect id="s29-1" x="420" y="234" width="11" height="11" rx="2" class="c2"/>
  <rect id="s29-2" x="420" y="248" width="11" height="11" rx="2" class="c3"/>
  <rect id="s29-3" x="420" y="262" width="11" height="11" rx="2" class="c1"/>
  <rect id="s29-4" x="420" y="276" width="11" height="11" rx="2" class="c1"/>
  <rect id="s29-5" x="420" y="290" width="11" height="11" rx="2" class="c1"/>
  <rect id="s29-6" x="420" y="304" width="11" height="11" rx="2" class="c0"/>
  <rect id="s30-0" x="434" y="220" width="11" height="11" rx="2" class="c0"/>
  <rect id="s30-1" x="434" y="234" width="11" height="11" rx="2" class="c0"/>
  <rect id="s30-2" x="434" y="248" width="11" height="11" rx="2" class="c1"/>
  <rect id="s30-3" x="434" y="262" width="11" height="11" rx="2" class="c2"/>
  <rect id="s30-4" x="434" y="276" width="11" height="11" rx="2" class="c0"/>
  <rect id="s30-5" x="434" y="290" width="11" height="11" rx="2" class="c3"/>
  <rect id="s30-6" x="434" y="304" width="11" height="11" rx="2" class="c0"/>
  <rect id="s31-0" x="448" y="220" width="11" height="11" rx="2" class="c0"/>
  <rect id="s31-1" x="448" y="234" width="11" height="11" rx="2" class="c2"/>
  <rect id="s31-2" x="448" y="248" width="11" height="11" rx="2" class="c1"/>
  <rect id="s31-3" x="448" y="262" width="11" height="11" rx="2" class="c2"/>
  <rect id="s31-4" x="448" y="276" width="11" height="11" rx="2" class="c1"/>
  <rect id="s31-5" x="448" y="290" width="11" height="11" rx="2" class="c3"/>
  <rect id="s31-6" x="448" y="304" width="11" height="11" rx="2" class="c0"/>
  <rect id="s32-0" x="462" y="220" width="11" height="11" rx="2" class="c0"/>
  <rect id="s32-1" x="462" y="234" width="11" height="11" rx="2" class="c2"/>
  <rect id="s32-2" x="462" y="248" width="11" height="11" rx="2" class="c1"/>
  <rect id="s32-3" x="462" y="262" width="11" height="11" rx="2" class="c1"/>
  <rect id="s32-4" x="462" y="276" width="11" height="11" rx="2" class="c0"/>
  <rect id="s32-5" x="462" y="290" width="11" height="11" rx="2" class="c1"/>
  <rect id="s32-6" x="462" y="304" width="11" height="11" rx="2" class="c2"/>
  <rect id="s33-0" x="476" y="220" width="11" height="11" rx="2" class="c1"/>
  <rect id="s33-1" x="476" y="234" width="11" height="11" rx="2" class="c1"/>
  <rect id="s33-2" x="476" y="248" width="11" height="11" rx="2" class="c2"/>
  <rect id="s33-3" x="476" y="262" width="11" height="11" rx="2" class="c0"/>
  <rect id="s33-4" x="476" y="276" width="11" height="11" rx="2" class="c0"/>
  <rect id="s33-5" x="476" y="290" width="11" height="11" rx="2" class="c1"/>
  <rect id="s33-6" x="476" y="304" width="11" height="11" rx="2" class="c2"/>
  <rect id="s34-0" x="490" y="220" width="11" height="11" rx="2" class="c3"/>
  <rect id="s34-1" x="490" y="234" width="11" height="11" rx="2" class="c0"/>
  <rect id="s34-2" x="490" y="248" width="11" height="11" rx="2" class="c0"/>
  <rect id="s34-3" x="490" y="262" width="11" height="11" rx="2" class="c0"/>
  <rect id="s34-4" x="490" y="276" width="11" height="11" rx="2" class="c0"/>
  <rect id="s34-5" x="490" y="290" width="11" height="11" rx="2" class="c0"/>
  <rect id="s34-6" x="490" y="304" width="11" height="11" rx="2" class="c0"/>
  <rect id="s35-0" x="504" y="220" width="11" height="11" rx="2" class="c2"/>
  <rect id="s35-1" x="504" y="234" width="11" height="11" rx="2" class="c2"/>
  <rect id="s35-2" x="504" y="248" width="11" height="11" rx="2" class="c0"/>
  <rect id="s35-3" x="504" y="262" width="11" height="11" rx="2" class="c0"/>
  <rect id="s35-4" x="504" y="276" width="11" height="11" rx="2" class="c1"/>
  <rect id="s35-5" x="504" y="290" width="11" height="11" rx="2" class="c0"/>
  <rect id="s35-6" x="504" y="304" width="11" height="11" rx="2" class="c0"/>
  <rect id="s36-0" x="518" y="220" width="11" height="11" rx="2" class="c0"/>
  <rect id="s36-1" x="518" y="234" width="11" height="11" rx="2" class="c0"/>
  <rect id="s36-2" x="518" y="248" width="11" height="11" rx="2" class="c2"/>
  <rect id="s36-3" x="518" y="262" width="11" height="11" rx="2" class="c2"/>
  <rect id="s36-4" x="518" y="276" width="11" height="11" rx="2" class="c0"/>
  <rect id="s36-5" x="518" y="290" width="11" height="11" rx="2" class="c0"/>
  <rect id="s36-6" x="518" y="304" width="11" height="11" rx="2" class="c0"/>
  <rect id="s37-0" x="532" y="220" width="11" height="11" rx="2" class="c0"/>
  <rect id="s37-1" x="532" y="234" width="11" height="11" rx="2" class="c0"/>
  <rect id="s37-2" x="532" y="248" width="11" height="11" rx="2" class="c2"/>
  <rect id="s37-3" x="532" y="262" width="11" height="11" rx="2" class="c0"/>
  <rect id="s37-4" x="532" y="276" width="11" height="11" rx="2" class="c2"/>
  <rect id="s37-5" x="532" y="290" width="11" height="11" rx="2" class="c2"/>
  <rect id="s37-6" x="532" y="304" width="11" height="11" rx="2" class="c0"/>
  <rect id="s38-0" x="546" y="220" width="11" height="11" rx="2" class="c0"/>
  <rect id="s38-1" x="546" y="234" width="11" height="11" rx="2" class="c1"/>
  <rect id="s38-2" x="546" y="248" width="11" height="11" rx="2" class="c1"/>
  <rect id="s38-3" x="546" y="262" width="11" height="11" rx="2" class="c3"/>
  <rect id="s38-4" x="546" y="276" width="11" height="11" rx="2" class="c2"/>
  <rect id="s38-5" x="546" y="290" width="11" height="11" rx="2" class="c1"/>
  <rect id="s38-6" x="546" y="304" width="11" height="11" rx="2" class="c1"/>
  <rect id="s39-0" x="560" y="220" width="11" height="11" rx="2" class="c0"/>
  <rect id="s39-1" x="560" y="234" width="11" height="11" rx="2" class="c0"/>
  <rect id="s39-2" x="560" y="248" width="11" height="11" rx="2" class="c0"/>
  <rect id="s39-3" x="560" y="262" width="11" height="11" rx="2" class="c1"/>
  <rect id="s39-4" x="560" y="276" width="11" height="11" rx="2" class="c0"/>
  <rect id="s39-5" x="560" y="290" width="11" height="11" rx="2" class="c1"/>
  <rect id="s39-6" x="560" y="304" width="11" height="11" rx="2" class="c2"/>
  <rect id="s40-0" x="574" y="220" width="11" height="11" rx="2" class="c0"/>
  <rect id="s40-1" x="574" y="234" width="11" height="11" rx="2" class="c2"/>
  <rect id="s40-2" x="574" y="248" width="11" height="11" rx="2" class="c2"/>
  <rect id="s40-3" x="574" y="262" width="11" height="11" rx="2" class="c2"/>
  <rect id="s40-4" x="574" y="276" width="11" height="11" rx="2" class="c2"/>
  <rect id="s40-5" x="574" y="290" width="11" height="11" rx="2" class="c1"/>
  <rect id="s40-6" x="574" y="304" width="11" height="11" rx="2" class="c2"/>
  <rect id="s41-0" x="588" y="220" width="11" height="11" rx="2" class="c0"/>
  <rect id="s41-1" x="588" y="234" width="11" height="11" rx="2" class="c1"/>
  <rect id="s41-2" x="588" y="248" width="11" height="11" rx="2" class="c1"/>
  <rect id="s41-3" x="588" y="262" width="11" height="11" rx="2" class="c1"/>
  <rect id="s41-4" x="588" y="276" width="11" height="11" rx="2" class="c1"/>
  <rect id="s41-5" x="588" y="290" width="11" height="11" rx="2" class="c2"/>
  <rect id="s41-6" x="588" y="304" width="11" height="11" rx="2" class="c0"/>
  <rect id="s42-0" x="602" y="220" width="11" height="11" rx="2" class="c0"/>
  <rect id="s42-1" x="602" y="234" width="11" height="11" rx="2" class="c1"/>
  <rect id="s42-2" x="602" y="248" width="11" height="11" rx="2" class="c3"/>
  <rect id="s42-3" x="602" y="262" width="11" height="11" rx="2" class="c2"/>
  <rect id="s42-4" x="602" y="276" width="11" height="11" rx="2" class="c1"/>
  <rect id="s42-5" x="602" y="290" width="11" height="11" rx="2" class="c1"/>
  <rect id="s42-6" x="602" y="304" width="11" height="11" rx="2" class="c1"/>
  <rect id="s43-0" x="616" y="220" width="11" height="11" rx="2" class="c2"/>
  <rect id="s43-1" x="616" y="234" width="11" height="11" rx="2" class="c2"/>
  <rect id="s43-2" x="616" y="248" width="11" height="11" rx="2" class="c1"/>
  <rect id="s43-3" x="616" y="262" width="11" height="11" rx="2" class="c2"/>
  <rect id="s43-4" x="616" y="276" width="11" height="11" rx="2" class="c1"/>
  <rect id="s43-5" x="616" y="290" width="11" height="11" rx="2" class="c3"/>
  <rect id="s43-6" x="616" y="304" width="11" height="11" rx="2" class="c0"/>
  <rect id="s44-0" x="630" y="220" width="11" height="11" rx="2" class="c0"/>
  <rect id="s44-1" x="630" y="234" width="11" height="11" rx="2" class="c1"/>
  <rect id="s44-2" x="630" y="248" width="11" height="11" rx="2" class="c1"/>
  <rect id="s44-3" x="630" y="262" width="11" height="11" rx="2" class="c1"/>
  <rect id="s44-4" x="630" y="276" width="11" height="11" rx="2" class="c1"/>
  <rect id="s44-5" x="630" y="290" width="11" height="11" rx="2" class="c1"/>
  <rect id="s44-6" x="630" y="304" width="11" height="11" rx="2" class="c1"/>
  <rect id="s45-0" x="644" y="220" width="11" height="11" rx="2" class="c1"/>
  <rect id="s45-1" x="644" y="234" width="11" height="11" rx="2" class="c1"/>
  <rect id="s45-2" x="644" y="248" width="11" height="11" rx="2" class="c4"/>
  <rect id="s45-3" x="644" y="262" width="11" height="11" rx="2" class="c1"/>
  <rect id="s45-4" x="644" y="276" width="11" height="11" rx="2" class="c0"/>
  <rect id="s45-5" x="644" y="290" width="11" height="11" rx="2" class="c2"/>
  <rect id="s45-6" x="644" y="304" width="11" height="11" rx="2" class="c2"/>
  <rect id="s46-0" x="658" y="220" width="11" height="11" rx="2" class="c0"/>
  <rect id="s46-1" x="658" y="234" width="11" height="11" rx="2" class="c0"/>
  <rect id="s46-2" x="658" y="248" width="11" height="11" rx="2" class="c1"/>
  <rect id="s46-3" x="658" y="262" width="11" height="11" rx="2" class="c2"/>
  <rect id="s46-4" x="658" y="276" width="11" height="11" rx="2" class="c1"/>
  <rect id="s46-5" x="658" y="290" width="11" height="11" rx="2" class="c1"/>
  <rect id="s46-6" x="658" y="304" width="11" height="11" rx="2" class="c0"/>
  <rect id="s47-0" x="672" y="220" width="11" height="11" rx="2" class="c0"/>
  <rect id="s47-1" x="672" y="234" width="11" height="11" rx="2" class="c1"/>
  <rect id="s47-2" x="672" y="248" width="11" height="11" rx="2" class="c2"/>
  <rect id="s47-3" x="672" y="262" width="11" height="11" rx="2" class="c1"/>
  <rect id="s47-4" x="672" y="276" width="11" height="11" rx="2" class="c1"/>
  <rect id="s47-5" x="672" y="290" width="11" height="11" rx="2" class="c0"/>
  <rect id="s47-6" x="672" y="304" width="11" height="11" rx="2" class="c0"/>
  <rect id="s48-0" x="686" y="220" width="11" height="11" rx="2" class="c2"/>
  <rect id="s48-1" x="686" y="234" width="11" height="11" rx="2" class="c2"/>
  <rect id="s48-2" x="686" y="248" width="11" height="11" rx="2" class="c1"/>
  <rect id="s48-3" x="686" y="262" width="11" height="11" rx="2" class="c0"/>
  <rect id="s48-4" x="686" y="276" width="11" height="11" rx="2" class="c2"/>
  <rect id="s48-5" x="686" y="290" width="11" height="11" rx="2" class="c2"/>
  <rect id="s48-6" x="686" y="304" width="11" height="11" rx="2" class="c0"/>
  <rect id="s49-0" x="700" y="220" width="11" height="11" rx="2" class="c0"/>
  <rect id="s49-1" x="700" y="234" width="11" height="11" rx="2" class="c1"/>
  <rect id="s49-2" x="700" y="248" width="11" height="11" rx="2" class="c1"/>
  <rect id="s49-3" x="700" y="262" width="11" height="11" rx="2" class="c0"/>
  <rect id="s49-4" x="700" y="276" width="11" height="11" rx="2" class="c1"/>
  <rect id="s49-5" x="700" y="290" width="11" height="11" rx="2" class="c0"/>
  <rect id="s49-6" x="700" y="304" width="11" height="11" rx="2" class="c1"/>
  <rect id="s50-0" x="714" y="220" width="11" height="11" rx="2" class="c3"/>
  <rect id="s50-1" x="714" y="234" width="11" height="11" rx="2" class="c0"/>
  <rect id="s50-2" x="714" y="248" width="11" height="11" rx="2" class="c2"/>
  <rect id="s50-3" x="714" y="262" width="11" height="11" rx="2" class="c2"/>
  <rect id="s50-4" x="714" y="276" width="11" height="11" rx="2" class="c1"/>
  <rect id="s50-5" x="714" y="290" width="11" height="11" rx="2" class="c1"/>
  <rect id="s50-6" x="714" y="304" width="11" height="11" rx="2" class="c4"/>
  <rect id="s51-0" x="728" y="220" width="11" height="11" rx="2" class="c1"/>
  <rect id="s51-1" x="728" y="234" width="11" height="11" rx="2" class="c2"/>
  <rect id="s51-2" x="728" y="248" width="11" height="11" rx="2" class="c1"/>
  <rect id="s51-3" x="728" y="262" width="11" height="11" rx="2" class="c0"/>
  <rect id="s51-4" x="728" y="276" width="11" height="11" rx="2" class="c2"/>
  <rect id="s51-5" x="728" y="290" width="11" height="11" rx="2" class="c1"/>
  <rect id="s51-6" x="728" y="304" width="11" height="11" rx="2" class="c0"/>

  <!-- ═══ LASERS + EXPLOSIONS (fired from bottom row, hits real commit squares) ═══ -->
  <!-- fire@0.9s inv_col=5 → sq(21,6) -->
  <rect x="303" width="3" height="14" rx="1" fill="#ff4500" opacity="0">
    <animate attributeName="opacity"
      values="0;0;1;1;0"
      keyTimes="0.0000; 0.0849; 0.0858; 0.1310; 0.1319"
      dur="10.6s" repeatCount="indefinite"/>
    <animate attributeName="y"
      values="182;182;182;309;309"
      keyTimes="0.0000; 0.0849; 0.0858; 0.1310; 0.9999"
      dur="10.6s" repeatCount="indefinite"/>
  </rect>
  <rect x="305" y="301" width="17" height="17" rx="3" fill="#ff6600" opacity="0">
    <animate attributeName="opacity"
      values="0;0;0.95;0.3;0"
      keyTimes="0.0000; 0.1310; 0.1385; 0.1574; 0.1687"
      dur="10.6s" repeatCount="indefinite"/>
  </rect>
  <rect x="308" y="304" width="11" height="11" rx="2" fill="#0d1117" opacity="0">
    <animate attributeName="opacity"
      values="0;0;1;1;0"
      keyTimes="0.0000; 0.1310; 0.1319; 0.3197; 0.3291"
      dur="10.6s" repeatCount="indefinite"/>
  </rect>
  <!-- fire@1.8s inv_col=2 → sq(15,1) -->
  <rect x="219" width="3" height="14" rx="1" fill="#ff4500" opacity="0">
    <animate attributeName="opacity"
      values="0;0;1;1;0"
      keyTimes="0.0000; 0.1698; 0.1708; 0.1905; 0.1914"
      dur="10.6s" repeatCount="indefinite"/>
    <animate attributeName="y"
      values="182;182;182;239;239"
      keyTimes="0.0000; 0.1698; 0.1708; 0.1905; 0.9999"
      dur="10.6s" repeatCount="indefinite"/>
  </rect>
  <rect x="221" y="231" width="17" height="17" rx="3" fill="#ff6600" opacity="0">
    <animate attributeName="opacity"
      values="0;0;0.95;0.3;0"
      keyTimes="0.0000; 0.1905; 0.1980; 0.2169; 0.2282"
      dur="10.6s" repeatCount="indefinite"/>
  </rect>
  <rect x="224" y="234" width="11" height="11" rx="2" fill="#0d1117" opacity="0">
    <animate attributeName="opacity"
      values="0;0;1;1;0"
      keyTimes="0.0000; 0.1905; 0.1914; 0.3792; 0.3886"
      dur="10.6s" repeatCount="indefinite"/>
  </rect>
  <!-- fire@2.7s inv_col=8 → sq(37,2) -->
  <rect x="531" width="3" height="14" rx="1" fill="#ff4500" opacity="0">
    <animate attributeName="opacity"
      values="0;0;1;1;0"
      keyTimes="0.0000; 0.2547; 0.2557; 0.2805; 0.2814"
      dur="10.6s" repeatCount="indefinite"/>
    <animate attributeName="y"
      values="182;182;182;253;253"
      keyTimes="0.0000; 0.2547; 0.2557; 0.2805; 0.9999"
      dur="10.6s" repeatCount="indefinite"/>
  </rect>
  <rect x="529" y="245" width="17" height="17" rx="3" fill="#ff6600" opacity="0">
    <animate attributeName="opacity"
      values="0;0;0.95;0.3;0"
      keyTimes="0.0000; 0.2805; 0.2880; 0.3069; 0.3182"
      dur="10.6s" repeatCount="indefinite"/>
  </rect>
  <rect x="532" y="248" width="11" height="11" rx="2" fill="#0d1117" opacity="0">
    <animate attributeName="opacity"
      values="0;0;1;1;0"
      keyTimes="0.0000; 0.2805; 0.2814; 0.4692; 0.4786"
      dur="10.6s" repeatCount="indefinite"/>
  </rect>
  <!-- fire@3.6s inv_col=4 → sq(28,4) -->
  <rect x="403" width="3" height="14" rx="1" fill="#ff4500" opacity="0">
    <animate attributeName="opacity"
      values="0;0;1;1;0"
      keyTimes="0.0000; 0.3396; 0.3406; 0.3755; 0.3765"
      dur="10.6s" repeatCount="indefinite"/>
    <animate attributeName="y"
      values="182;182;182;281;281"
      keyTimes="0.0000; 0.3396; 0.3406; 0.3755; 0.9999"
      dur="10.6s" repeatCount="indefinite"/>
  </rect>
  <rect x="403" y="273" width="17" height="17" rx="3" fill="#ff6600" opacity="0">
    <animate attributeName="opacity"
      values="0;0;0.95;0.3;0"
      keyTimes="0.0000; 0.3755; 0.3831; 0.4020; 0.4133"
      dur="10.6s" repeatCount="indefinite"/>
  </rect>
  <rect x="406" y="276" width="11" height="11" rx="2" fill="#0d1117" opacity="0">
    <animate attributeName="opacity"
      values="0;0;1;1;0"
      keyTimes="0.0000; 0.3755; 0.3765; 0.5642; 0.5737"
      dur="10.6s" repeatCount="indefinite"/>
  </rect>
  <!-- fire@4.5s inv_col=9 → sq(47,2) -->
  <rect x="671" width="3" height="14" rx="1" fill="#ff4500" opacity="0">
    <animate attributeName="opacity"
      values="0;0;1;1;0"
      keyTimes="0.0000; 0.4245; 0.4255; 0.4503; 0.4512"
      dur="10.6s" repeatCount="indefinite"/>
    <animate attributeName="y"
      values="182;182;182;253;253"
      keyTimes="0.0000; 0.4245; 0.4255; 0.4503; 0.9999"
      dur="10.6s" repeatCount="indefinite"/>
  </rect>
  <rect x="669" y="245" width="17" height="17" rx="3" fill="#ff6600" opacity="0">
    <animate attributeName="opacity"
      values="0;0;0.95;0.3;0"
      keyTimes="0.0000; 0.4503; 0.4578; 0.4767; 0.4880"
      dur="10.6s" repeatCount="indefinite"/>
  </rect>
  <rect x="672" y="248" width="11" height="11" rx="2" fill="#0d1117" opacity="0">
    <animate attributeName="opacity"
      values="0;0;1;1;0"
      keyTimes="0.0000; 0.4503; 0.4512; 0.6390; 0.6484"
      dur="10.6s" repeatCount="indefinite"/>
  </rect>
  <!-- fire@5.4s inv_col=1 → sq(22,2) -->
  <rect x="323" width="3" height="14" rx="1" fill="#ff4500" opacity="0">
    <animate attributeName="opacity"
      values="0;0;1;1;0"
      keyTimes="0.0000; 0.5094; 0.5104; 0.5352; 0.5361"
      dur="10.6s" repeatCount="indefinite"/>
    <animate attributeName="y"
      values="182;182;182;253;253"
      keyTimes="0.0000; 0.5094; 0.5104; 0.5352; 0.9999"
      dur="10.6s" repeatCount="indefinite"/>
  </rect>
  <rect x="319" y="245" width="17" height="17" rx="3" fill="#ff6600" opacity="0">
    <animate attributeName="opacity"
      values="0;0;0.95;0.3;0"
      keyTimes="0.0000; 0.5352; 0.5427; 0.5616; 0.5729"
      dur="10.6s" repeatCount="indefinite"/>
  </rect>
  <rect x="322" y="248" width="11" height="11" rx="2" fill="#0d1117" opacity="0">
    <animate attributeName="opacity"
      values="0;0;1;1;0"
      keyTimes="0.0000; 0.5352; 0.5361; 0.7239; 0.7333"
      dur="10.6s" repeatCount="indefinite"/>
  </rect>
  <!-- fire@6.5s inv_col=6 → sq(33,1) -->
  <rect x="479" width="3" height="14" rx="1" fill="#ff4500" opacity="0">
    <animate attributeName="opacity"
      values="0;0;1;1;0"
      keyTimes="0.0000; 0.6132; 0.6142; 0.6339; 0.6348"
      dur="10.6s" repeatCount="indefinite"/>
    <animate attributeName="y"
      values="182;182;182;239;239"
      keyTimes="0.0000; 0.6132; 0.6142; 0.6339; 0.9999"
      dur="10.6s" repeatCount="indefinite"/>
  </rect>
  <rect x="473" y="231" width="17" height="17" rx="3" fill="#ff6600" opacity="0">
    <animate attributeName="opacity"
      values="0;0;0.95;0.3;0"
      keyTimes="0.0000; 0.6339; 0.6414; 0.6603; 0.6716"
      dur="10.6s" repeatCount="indefinite"/>
  </rect>
  <rect x="476" y="234" width="11" height="11" rx="2" fill="#0d1117" opacity="0">
    <animate attributeName="opacity"
      values="0;0;1;1;0"
      keyTimes="0.0000; 0.6339; 0.6348; 0.8226; 0.8320"
      dur="10.6s" repeatCount="indefinite"/>
  </rect>
  <!-- fire@7.4s inv_col=3 → sq(20,2) -->
  <rect x="299" width="3" height="14" rx="1" fill="#ff4500" opacity="0">
    <animate attributeName="opacity"
      values="0;0;1;1;0"
      keyTimes="0.0000; 0.6981; 0.6991; 0.7239; 0.7248"
      dur="10.6s" repeatCount="indefinite"/>
    <animate attributeName="y"
      values="182;182;182;253;253"
      keyTimes="0.0000; 0.6981; 0.6991; 0.7239; 0.9999"
      dur="10.6s" repeatCount="indefinite"/>
  </rect>
  <rect x="291" y="245" width="17" height="17" rx="3" fill="#ff6600" opacity="0">
    <animate attributeName="opacity"
      values="0;0;0.95;0.3;0"
      keyTimes="0.0000; 0.7239; 0.7314; 0.7503; 0.7616"
      dur="10.6s" repeatCount="indefinite"/>
  </rect>
  <rect x="294" y="248" width="11" height="11" rx="2" fill="#0d1117" opacity="0">
    <animate attributeName="opacity"
      values="0;0;1;1;0"
      keyTimes="0.0000; 0.7239; 0.7248; 0.9126; 0.9220"
      dur="10.6s" repeatCount="indefinite"/>
  </rect>
  <!-- fire@8.3s inv_col=7 → sq(30,5) -->
  <rect x="427" width="3" height="14" rx="1" fill="#ff4500" opacity="0">
    <animate attributeName="opacity"
      values="0;0;1;1;0"
      keyTimes="0.0000; 0.7830; 0.7840; 0.8240; 0.8250"
      dur="10.6s" repeatCount="indefinite"/>
    <animate attributeName="y"
      values="182;182;182;295;295"
      keyTimes="0.0000; 0.7830; 0.7840; 0.8240; 0.9999"
      dur="10.6s" repeatCount="indefinite"/>
  </rect>
  <rect x="431" y="287" width="17" height="17" rx="3" fill="#ff6600" opacity="0">
    <animate attributeName="opacity"
      values="0;0;0.95;0.3;0"
      keyTimes="0.0000; 0.8240; 0.8316; 0.8504; 0.8618"
      dur="10.6s" repeatCount="indefinite"/>
  </rect>
  <rect x="434" y="290" width="11" height="11" rx="2" fill="#0d1117" opacity="0">
    <animate attributeName="opacity"
      values="0;0;1;1;0"
      keyTimes="0.0000; 0.8240; 0.8250; 0.9400; 0.9494"
      dur="10.6s" repeatCount="indefinite"/>
  </rect>
  <!-- fire@9.2s inv_col=0 → sq(6,6) -->
  <rect x="87" width="3" height="14" rx="1" fill="#ff4500" opacity="0">
    <animate attributeName="opacity"
      values="0;0;1;1;0"
      keyTimes="0.0000; 0.8679; 0.8689; 0.9140; 0.9149"
      dur="10.6s" repeatCount="indefinite"/>
    <animate attributeName="y"
      values="182;182;182;309;309"
      keyTimes="0.0000; 0.8679; 0.8689; 0.9140; 0.9999"
      dur="10.6s" repeatCount="indefinite"/>
  </rect>
  <rect x="95" y="301" width="17" height="17" rx="3" fill="#ff6600" opacity="0">
    <animate attributeName="opacity"
      values="0;0;0.95;0.3;0"
      keyTimes="0.0000; 0.9140; 0.9216; 0.9404; 0.9517"
      dur="10.6s" repeatCount="indefinite"/>
  </rect>
  <rect x="98" y="304" width="11" height="11" rx="2" fill="#0d1117" opacity="0">
    <animate attributeName="opacity"
      values="0;0;1;1;0"
      keyTimes="0.0000; 0.9140; 0.9149; 0.9400; 0.9494"
      dur="10.6s" repeatCount="indefinite"/>
  </rect>
  <!-- fire@10.1s inv_col=5 → sq(17,5) -->
  <rect x="255" width="3" height="14" rx="1" fill="#ff4500" opacity="0">
    <animate attributeName="opacity"
      values="0;0;1;1;0"
      keyTimes="0.0000; 0.9528; 0.9538; 0.9938; 0.9948"
      dur="10.6s" repeatCount="indefinite"/>
    <animate attributeName="y"
      values="182;182;182;295;295"
      keyTimes="0.0000; 0.9528; 0.9538; 0.9938; 0.9999"
      dur="10.6s" repeatCount="indefinite"/>
  </rect>
  <rect x="249" y="287" width="17" height="17" rx="3" fill="#ff6600" opacity="0">
    <animate attributeName="opacity"
      values="0;0;0.95;0.3;0"
      keyTimes="0.0000; 0.9938; 0.9999; 0.9999; 0.9999"
      dur="10.6s" repeatCount="indefinite"/>
  </rect>
  <rect x="252" y="290" width="11" height="11" rx="2" fill="#0d1117" opacity="0">
    <animate attributeName="opacity"
      values="0;0;1;1;0"
      keyTimes="0.0000; 0.9938; 0.9948; 0.9400; 0.9494"
      dur="10.6s" repeatCount="indefinite"/>
  </rect>

  <!-- ═══ PLAYER SHIP ═══ -->
  <g>
    <use href="#player"/>
    <!-- Player drifts slowly back and forth -->
    <animateTransform attributeName="transform" type="translate"
      values="80,340; 680,340; 80,340"
      keyTimes="0; 0.5; 1"
      dur="14s" repeatCount="indefinite"/>
  </g>

  <!-- ═══ BOTTOM BAR ═══ -->
  <line x1="0" y1="368" x2="800" y2="368"
        stroke="#39d353" stroke-width="1"/>
  <text x="10"         y="382" class="ui2">3</text>
  <use href="#player"  transform="translate(26,370) scale(0.7)"/>
  <use href="#player"  transform="translate(62,370) scale(0.7)"/>
  <use href="#player"  transform="translate(98,370) scale(0.7)"/>
  <text x="710" y="382" class="ui">CREDIT 00</text>

</svg>